<mxfile host="app.diagrams.net" agent="Mozilla/5.0 (Windows NT 10.0; Win64; x64) AppleWebKit/537.36 (KHTML, like Gecko) Chrome/127.0.0.0 Safari/537.36 OPR/113.0.0.0" version="24.7.17">
  <diagram name="Page-1" id="VNes-6cNRSEDJr4BxnLO">
    <mxGraphModel dx="2033" dy="1115" grid="1" gridSize="10" guides="1" tooltips="1" connect="1" arrows="1" fold="1" page="1" pageScale="1" pageWidth="850" pageHeight="1100" math="0" shadow="0">
      <root>
        <mxCell id="0" />
        <mxCell id="1" parent="0" />
        <mxCell id="8rVQtinVMlc4cXrzFFjD-22" value="" style="whiteSpace=wrap;html=1;aspect=fixed;movable=1;resizable=1;rotatable=1;deletable=1;editable=1;locked=0;connectable=1;" vertex="1" parent="1">
          <mxGeometry x="20" y="10" width="350" height="350" as="geometry" />
        </mxCell>
        <mxCell id="8rVQtinVMlc4cXrzFFjD-23" value="Register Form" style="rounded=0;whiteSpace=wrap;html=1;" vertex="1" parent="1">
          <mxGeometry x="90" y="80" width="200" height="110" as="geometry" />
        </mxCell>
        <mxCell id="8rVQtinVMlc4cXrzFFjD-25" value="" style="whiteSpace=wrap;html=1;aspect=fixed;movable=1;resizable=1;rotatable=1;deletable=1;editable=1;locked=0;connectable=1;" vertex="1" parent="1">
          <mxGeometry x="410" y="10" width="350" height="350" as="geometry" />
        </mxCell>
        <mxCell id="8rVQtinVMlc4cXrzFFjD-26" value="Login Form" style="rounded=0;whiteSpace=wrap;html=1;" vertex="1" parent="1">
          <mxGeometry x="480" y="80" width="200" height="110" as="geometry" />
        </mxCell>
        <mxCell id="8rVQtinVMlc4cXrzFFjD-27" value="" style="whiteSpace=wrap;html=1;aspect=fixed;" vertex="1" parent="1">
          <mxGeometry x="15" y="440" width="350" height="350" as="geometry" />
        </mxCell>
        <mxCell id="8rVQtinVMlc4cXrzFFjD-28" value="Profile Edit form" style="rounded=0;whiteSpace=wrap;html=1;" vertex="1" parent="1">
          <mxGeometry x="45" y="540" width="130" height="70" as="geometry" />
        </mxCell>
        <mxCell id="8rVQtinVMlc4cXrzFFjD-30" value="Profile Edit form" style="rounded=0;whiteSpace=wrap;html=1;" vertex="1" parent="1">
          <mxGeometry x="205" y="540" width="130" height="70" as="geometry" />
        </mxCell>
        <mxCell id="8rVQtinVMlc4cXrzFFjD-32" value="Header" style="rounded=0;whiteSpace=wrap;html=1;" vertex="1" parent="1">
          <mxGeometry x="15" y="440" width="350" height="70" as="geometry" />
        </mxCell>
        <mxCell id="8rVQtinVMlc4cXrzFFjD-33" value="Register page" style="text;html=1;align=center;verticalAlign=middle;resizable=0;points=[];autosize=1;strokeColor=none;fillColor=none;" vertex="1" parent="1">
          <mxGeometry x="145" y="368" width="100" height="30" as="geometry" />
        </mxCell>
        <mxCell id="8rVQtinVMlc4cXrzFFjD-34" value="Login Page" style="text;html=1;align=center;verticalAlign=middle;resizable=0;points=[];autosize=1;strokeColor=none;fillColor=none;" vertex="1" parent="1">
          <mxGeometry x="545" y="368" width="80" height="30" as="geometry" />
        </mxCell>
        <mxCell id="8rVQtinVMlc4cXrzFFjD-35" value="" style="whiteSpace=wrap;html=1;aspect=fixed;" vertex="1" parent="1">
          <mxGeometry x="405" y="440" width="350" height="350" as="geometry" />
        </mxCell>
        <mxCell id="8rVQtinVMlc4cXrzFFjD-36" value="User Card" style="rounded=0;whiteSpace=wrap;html=1;" vertex="1" parent="1">
          <mxGeometry x="422.5" y="520" width="315" height="30" as="geometry" />
        </mxCell>
        <mxCell id="8rVQtinVMlc4cXrzFFjD-38" value="Header" style="rounded=0;whiteSpace=wrap;html=1;" vertex="1" parent="1">
          <mxGeometry x="405" y="440" width="350" height="70" as="geometry" />
        </mxCell>
        <mxCell id="8rVQtinVMlc4cXrzFFjD-39" value="Profile Page" style="text;html=1;align=center;verticalAlign=middle;resizable=0;points=[];autosize=1;strokeColor=none;fillColor=none;" vertex="1" parent="1">
          <mxGeometry x="145" y="798" width="90" height="30" as="geometry" />
        </mxCell>
        <mxCell id="8rVQtinVMlc4cXrzFFjD-40" value="All Users Page" style="text;html=1;align=center;verticalAlign=middle;resizable=0;points=[];autosize=1;strokeColor=none;fillColor=none;" vertex="1" parent="1">
          <mxGeometry x="530" y="798" width="100" height="30" as="geometry" />
        </mxCell>
        <mxCell id="8rVQtinVMlc4cXrzFFjD-43" value="User Card" style="rounded=0;whiteSpace=wrap;html=1;" vertex="1" parent="1">
          <mxGeometry x="422.5" y="560" width="315" height="30" as="geometry" />
        </mxCell>
        <mxCell id="8rVQtinVMlc4cXrzFFjD-44" value="User Card" style="rounded=0;whiteSpace=wrap;html=1;" vertex="1" parent="1">
          <mxGeometry x="422.5" y="600" width="315" height="30" as="geometry" />
        </mxCell>
        <mxCell id="8rVQtinVMlc4cXrzFFjD-45" value="User Card" style="rounded=0;whiteSpace=wrap;html=1;" vertex="1" parent="1">
          <mxGeometry x="422.5" y="640" width="315" height="30" as="geometry" />
        </mxCell>
        <mxCell id="8rVQtinVMlc4cXrzFFjD-46" value="User Card" style="rounded=0;whiteSpace=wrap;html=1;" vertex="1" parent="1">
          <mxGeometry x="422.5" y="680" width="315" height="30" as="geometry" />
        </mxCell>
        <mxCell id="8rVQtinVMlc4cXrzFFjD-47" value="User Card" style="rounded=0;whiteSpace=wrap;html=1;" vertex="1" parent="1">
          <mxGeometry x="422.5" y="720" width="315" height="30" as="geometry" />
        </mxCell>
      </root>
    </mxGraphModel>
  </diagram>
</mxfile>
